<svg width="591" height="296" viewBox="0 0 591 296" fill="none" xmlns="http://www.w3.org/2000/svg">
<g clip-path="url(#clip0_62_2)">
<path d="M194.628 296C176.795 296 158.989 295.681 141.209 295.043C115.804 294.131 89.5342 293.189 65.1172 279.659C48.0365 270.195 32.9089 255.011 21.3702 235.747C13.6579 222.69 8.00294 208.524 4.60389 193.749C-1.73663 166.847 -1.52067 138.818 5.23363 112.017C7.6006 102.828 10.8636 93.8936 14.9759 85.341C32.7822 48.5007 65.2596 23.7707 104.081 17.4928C104.401 17.4512 104.726 17.4443 105.048 17.4721C105.222 17.4815 105.396 17.4915 105.574 17.484L105.802 17.4115C106.388 17.2082 106.989 17.054 107.6 16.9505C167.473 8.04513 230.767 26.0637 290.635 69.0569C336.925 102.304 398.273 120.207 478.183 123.789L479.318 123.848C501.563 125.125 523.081 134.288 541.548 150.347C559.775 166.199 573.46 187.347 581.124 211.507C582.066 214.453 582.93 217.519 583.691 220.62C584.4 223.502 584.35 226.518 583.546 229.375C582.742 232.231 581.212 234.832 579.104 236.923V236.928L578.905 237.133C578.426 237.609 577.922 238.065 577.406 238.49L576.801 238.989C571.694 243.192 567.66 246.512 562.833 249.091C559.613 250.799 556.189 252.091 552.643 252.935C533.17 257.678 513.394 262.076 493.866 266.007C455.941 273.647 417.017 279.949 378.174 284.738C317.281 292.24 255.983 296.001 194.628 296ZM104.594 18.7769C104.475 18.7758 104.355 18.7839 104.237 18.8011C65.7789 25.0204 33.609 49.5075 15.9792 85.9832C11.9075 94.451 8.6768 103.297 6.33337 112.395C-0.35938 138.958 -0.572659 166.738 5.71147 193.401C9.07724 208.035 14.6774 222.065 22.3152 234.997C33.741 254.072 48.7139 269.104 65.6155 278.469C89.8134 291.878 115.96 292.816 141.245 293.723C220.329 296.546 299.513 293.103 378.052 283.425C416.869 278.639 455.768 272.341 493.668 264.706C513.183 260.778 532.945 256.383 552.405 251.643C555.866 250.82 559.207 249.56 562.349 247.893C567.08 245.367 571.075 242.078 576.132 237.915L576.738 237.417C577.181 237.051 577.616 236.66 578.033 236.254L578.152 236.129C582.308 231.943 583.925 226.421 582.586 220.979V220.978C581.833 217.91 580.979 214.877 580.046 211.962C564.39 162.607 523.888 127.728 479.263 125.167L478.135 125.108C441.632 123.471 409.69 118.938 380.487 111.248C345.625 102.068 315.19 88.2498 290.027 70.177C230.387 27.3485 167.358 9.39699 107.747 18.2601C107.19 18.3561 106.642 18.498 106.109 18.6844L105.697 18.7995C105.463 18.8099 105.229 18.8071 104.995 18.7911C104.857 18.784 104.724 18.7769 104.594 18.7769Z" fill="#F0F0F0"/>
<path d="M184.604 96.4404C182.953 94.8579 181.265 86.0331 179.157 85.1372C180.732 88.616 179.589 89.5371 179.58 93.355C179.6 95.523 179.347 97.6848 178.826 99.7895H143.122V71.9501C143.122 69.4487 143.615 66.9717 144.573 64.6607C145.531 62.3496 146.935 60.2497 148.706 58.481C150.476 56.7122 152.578 55.3091 154.891 54.3519C157.204 53.3947 159.683 52.902 162.187 52.9021C163.143 52.9207 164.092 53.0596 165.013 53.3154C168.082 54.1432 170.879 55.7628 173.123 58.0116C175.368 60.2604 176.981 63.0594 177.801 66.1278C180.523 76.0676 184.852 92.6133 184.604 96.4404Z" fill="#2F2E41"/>
<path d="M145.217 130.688L145.235 108.989L132.468 110.129L136.973 123.814L134.865 158.213C133.842 158.443 132.908 158.964 132.177 159.715C131.446 160.465 130.949 161.412 130.747 162.44C130.545 163.467 130.647 164.531 131.04 165.502C131.433 166.473 132.1 167.309 132.96 167.907C133.82 168.506 134.836 168.841 135.884 168.873C136.932 168.905 137.966 168.631 138.861 168.086C139.755 167.54 140.472 166.747 140.923 165.801C141.374 164.856 141.54 163.8 141.401 162.762L145.217 130.688Z" fill="#FFB6B6"/>
<path d="M170.342 285.751L175.499 285.75L177.953 265.874H170.34L170.342 285.751Z" fill="#FFB6B6"/>
<path d="M168.595 283.208L176.748 282.722V286.212L184.5 291.561C184.883 291.825 185.171 292.205 185.323 292.644C185.475 293.084 185.482 293.56 185.343 294.004C185.205 294.448 184.928 294.836 184.553 295.111C184.178 295.387 183.725 295.535 183.26 295.535H173.553L171.88 292.083L171.227 295.535H167.567L168.595 283.208Z" fill="#2F2E41"/>
<path d="M140.518 285.751L145.677 285.75L148.13 265.874H140.518L140.518 285.751Z" fill="#FFB6B6"/>
<path d="M138.772 283.208L146.925 282.722V286.212L154.677 291.561C155.06 291.825 155.348 292.205 155.5 292.644C155.652 293.084 155.659 293.56 155.52 294.004C155.382 294.448 155.105 294.836 154.73 295.111C154.356 295.387 153.902 295.535 153.437 295.535H143.73L142.057 292.083L141.404 295.535H137.744L138.772 283.208Z" fill="#2F2E41"/>
<path d="M165.749 85.5557L155.064 85.765L147.522 93.7191L141.475 94.6051C138.74 95.006 136.225 96.3326 134.351 98.3634C132.477 100.394 131.358 103.006 131.18 105.762L132.228 111.511H138.513L142.149 132.841C140.735 136.44 140.639 139.281 143.541 140.397L152.55 157.352L179.157 145.421C180.506 143.103 180.939 140.775 179.559 138.511L181.462 105.86H187.857C187.857 99.7527 185.79 94.6043 179.715 93.9248C177.303 93.6639 174.879 93.5254 172.453 93.5098L165.749 85.5557Z" fill="#E6E6E6"/>
<path d="M179.157 145.421C179.157 145.421 153.178 150.026 143.541 140.397C143.541 140.397 142.562 142.057 141.088 144.809C140.664 145.6 139.845 146.137 139.351 147.095C138.901 147.967 137.745 149.038 137.256 150.026C136.862 150.821 137.494 151.86 137.084 152.719C132.148 163.062 126.382 177.651 127.618 187.285C128.416 193.497 130.062 207.953 131.796 223.48C131.932 224.693 130.834 226.251 130.971 227.474C131.099 228.627 132.461 229.444 132.589 230.6C132.675 231.367 131.724 232.15 131.809 232.916C131.902 233.757 133.031 234.581 133.124 235.419C135.5 256.858 137.675 276.873 137.675 276.873H149.826L152.119 231.159L150.245 214.496L154.645 180.796L160.72 212.822L161.502 230.846L167.923 277.71H179.157V232.343L179.995 229.986L179.157 226.963L179.995 223.706L179.157 220.159V145.421Z" fill="#2F2E41"/>
<path d="M169.028 79.3651C167.373 81.5618 165.018 83.1298 162.352 83.8109C159.686 84.492 156.867 84.2456 154.36 83.1123C151.852 81.9789 149.806 80.0262 148.558 77.5758C147.31 75.1253 146.934 72.3232 147.493 69.6309C148.051 66.9386 149.511 64.5167 151.632 62.764C153.752 61.0113 156.407 60.0324 159.158 59.9884C161.91 59.9444 164.595 60.8379 166.77 62.522C168.945 64.206 170.482 66.58 171.127 69.253C171.161 69.3981 171.191 69.5423 171.219 69.692C171.56 71.3675 171.541 73.096 171.163 74.7635C170.785 76.431 170.058 77.9994 169.028 79.3651Z" fill="#FFB6B6"/>
<path d="M166.503 72.4608C166.246 71.1725 165.596 69.9952 164.642 69.0908C164.737 70.3254 164.565 71.5658 164.14 72.7288C160.954 73.0106 157.754 72.3773 154.917 70.9035C152.78 69.455 150.061 69.5806 146.893 70.9035C146.893 69.3641 147.196 67.8398 147.786 66.4175C148.375 64.9953 149.239 63.703 150.329 62.6145C151.418 61.526 152.712 60.6625 154.135 60.0735C155.559 59.4845 157.085 59.1814 158.625 59.1816H160.72C163.832 59.1822 166.816 60.4174 169.016 62.6155C171.216 64.8137 172.452 67.7949 172.453 70.9035C170.519 71.5964 168.528 72.1175 166.503 72.4608Z" fill="#2F2E41"/>
<path d="M74.8451 221.86C93.4601 221.86 108.551 206.783 108.551 188.185C108.551 169.587 93.4601 154.51 74.8451 154.51C56.2302 154.51 41.1398 169.587 41.1398 188.185C41.1398 206.783 56.2302 221.86 74.8451 221.86Z" fill="#F0F0F0"/>
<path d="M289.634 67.3504C308.249 67.3504 323.34 52.2735 323.34 33.6752C323.34 15.0769 308.249 0 289.634 0C271.019 0 255.929 15.0769 255.929 33.6752C255.929 52.2735 271.019 67.3504 289.634 67.3504Z" fill="#F0F0F0"/>
<path d="M557.295 227.143C575.91 227.143 591 212.066 591 193.467C591 174.869 575.91 159.792 557.295 159.792C538.68 159.792 523.589 174.869 523.589 193.467C523.589 212.066 538.68 227.143 557.295 227.143Z" fill="#F0F0F0"/>
<path d="M350.436 37.3477V113.709C350.436 115.295 349.81 116.817 348.693 117.944C347.577 119.072 346.06 119.713 344.473 119.73C344.451 119.732 344.429 119.733 344.407 119.733H335.511C328.394 119.733 321.568 116.908 316.535 111.88C311.502 106.851 308.675 100.031 308.675 92.9203V37.3476C308.675 35.7499 309.31 34.2177 310.441 33.0879C311.571 31.9582 313.105 31.3235 314.704 31.3235H318.309C316.639 36.1903 339.302 38.2393 340.546 31.3235H344.407C346.006 31.3235 347.539 31.9582 348.67 33.0879C349.801 34.2177 350.436 35.75 350.436 37.3477Z" fill="#6C63FF"/>
<path d="M324.038 25.6135C324.039 25.4041 324.122 25.2035 324.27 25.0555C324.418 24.9075 324.619 24.8242 324.828 24.824H330.202C330.411 24.8246 330.611 24.908 330.759 25.056C330.907 25.204 330.99 25.4045 330.99 25.6135C330.99 25.8224 330.907 26.0229 330.759 26.1709C330.611 26.3189 330.411 26.4023 330.202 26.4029H324.828C324.619 26.4027 324.418 26.3195 324.27 26.1715C324.122 26.0234 324.039 25.8228 324.038 25.6135Z" fill="#3F3D56"/>
<path d="M346.253 129.419H312.272C309.636 129.416 307.108 128.368 305.244 126.505C303.38 124.643 302.331 122.118 302.328 119.484V66.1044C302.142 65.9705 301.99 65.7941 301.885 65.5899C301.78 65.3856 301.726 65.1594 301.726 64.9299V59.5614C301.726 59.3319 301.78 59.1057 301.885 58.9015C301.99 58.6973 302.142 58.521 302.328 58.3872V56.9463C302.142 56.8125 301.99 56.6362 301.885 56.432C301.78 56.2277 301.726 56.0015 301.726 55.7721V50.4033C301.726 50.1738 301.78 49.9476 301.885 49.7434C301.99 49.5392 302.142 49.3629 302.328 49.2291V46.625C302.098 46.5013 301.906 46.3175 301.772 46.093C301.638 45.8686 301.567 45.612 301.568 45.3508V39.9823C301.567 39.721 301.638 39.4644 301.772 39.2399C301.906 39.0154 302.098 38.8315 302.328 38.7078V31.5722C302.331 28.9382 303.38 26.413 305.244 24.5505C307.108 22.688 309.636 21.6404 312.272 21.6375H346.253C348.889 21.6404 351.416 22.6881 353.281 24.5506C355.145 26.413 356.193 28.9383 356.196 31.5722V47.1263C356.375 47.2382 356.523 47.3938 356.625 47.5784C356.728 47.7629 356.782 47.9705 356.782 48.1815V58.4181C356.782 58.6292 356.728 58.8368 356.625 59.0214C356.523 59.2061 356.375 59.3617 356.196 59.4737V119.484C356.193 122.118 355.145 124.643 353.281 126.505C351.416 128.368 348.889 129.416 346.253 129.419ZM312.272 22.958C309.986 22.9606 307.795 23.869 306.178 25.4839C304.562 27.0988 303.653 29.2884 303.65 31.5722V39.8311L303.014 39.8556C302.981 39.8568 302.95 39.8706 302.927 39.8942C302.904 39.9177 302.89 39.9493 302.89 39.9823V45.3507C302.891 45.3837 302.904 45.4153 302.927 45.4388C302.95 45.4624 302.981 45.4762 303.014 45.4775L303.65 45.5017V50.1563L303.147 50.2801C303.12 50.2868 303.095 50.3025 303.077 50.3248C303.059 50.3471 303.049 50.3747 303.048 50.4033V55.7721C303.049 55.8007 303.059 55.8283 303.077 55.8505C303.095 55.8728 303.12 55.8885 303.147 55.8952L303.65 56.019V59.3144L303.147 59.4382C303.12 59.4449 303.095 59.4606 303.077 59.4829C303.059 59.5052 303.049 59.5328 303.048 59.5614V64.9298C303.049 64.9585 303.059 64.9861 303.077 65.0085C303.095 65.0308 303.119 65.0466 303.147 65.0533L303.65 65.1771V119.484C303.653 121.768 304.562 123.957 306.178 125.572C307.795 127.187 309.986 128.095 312.272 128.098H346.253C348.539 128.095 350.73 127.187 352.346 125.572C353.963 123.957 354.872 121.768 354.875 119.484V58.343H355.46V48.257H354.875V31.5722C354.872 29.2884 353.963 27.0988 352.346 25.4839C350.73 23.869 348.539 22.9606 346.253 22.958L312.272 22.958Z" fill="#3F3D56"/>
<path d="M333.205 26.4029C333.641 26.4029 333.995 26.0495 333.995 25.6135C333.995 25.1774 333.641 24.824 333.205 24.824C332.768 24.824 332.414 25.1774 332.414 25.6135C332.414 26.0495 332.768 26.4029 333.205 26.4029Z" fill="#3F3D56"/>
<path d="M161.31 178.547H72.8915C71.6359 178.543 70.4326 178.044 69.5447 177.157C68.6567 176.27 68.1564 175.067 68.153 173.813V130.769C68.1562 129.514 68.6564 128.312 69.5442 127.425C70.432 126.538 71.6353 126.038 72.8909 126.034H161.309C162.565 126.038 163.768 126.537 164.656 127.424C165.544 128.311 166.045 129.514 166.048 130.768V173.812C166.045 175.067 165.545 176.269 164.657 177.156C163.769 178.043 162.566 178.543 161.31 178.547Z" fill="white"/>
<path d="M161.31 178.547H72.8915C71.6359 178.543 70.4326 178.044 69.5447 177.157C68.6567 176.27 68.1564 175.067 68.153 173.813V130.769C68.1562 129.514 68.6564 128.312 69.5442 127.425C70.432 126.538 71.6353 126.038 72.8909 126.034H161.309C162.565 126.038 163.768 126.537 164.656 127.424C165.544 128.311 166.045 129.514 166.048 130.768V173.812C166.045 175.067 165.545 176.269 164.657 177.156C163.769 178.043 162.566 178.543 161.31 178.547ZM72.8915 127.355C71.9861 127.358 71.1184 127.718 70.4782 128.358C69.838 128.998 69.4773 129.865 69.4748 130.769V173.812C69.4774 174.717 69.8383 175.584 70.4786 176.223C71.119 176.863 71.9867 177.224 72.8922 177.226H161.309C162.214 177.223 163.082 176.863 163.722 176.223C164.363 175.583 164.724 174.716 164.726 173.812V130.769C164.723 129.864 164.363 128.997 163.722 128.358C163.082 127.718 162.214 127.358 161.309 127.355L72.8915 127.355Z" fill="#3F3D56"/>
<path d="M121.84 172.185C104.402 172.185 86.2184 172.019 79.4341 171.911C78.5415 171.893 77.6914 171.526 77.0654 170.89C76.4394 170.254 76.0871 169.399 76.0836 168.507V132.876C76.084 132.557 76.2109 132.25 76.4367 132.024C76.6625 131.798 76.9687 131.671 77.2884 131.669H156.91C157.229 131.67 157.536 131.797 157.762 132.022C157.988 132.248 158.116 132.554 158.117 132.873V157.048C158.102 160.994 156.54 164.777 153.765 167.586C150.991 170.394 147.225 172.005 143.276 172.071C136.953 172.153 129.466 172.185 121.84 172.185Z" fill="#6C63FF"/>
<path d="M152.183 154.827H80.2394C79.637 154.825 79.0497 154.638 78.5573 154.291C78.065 153.945 77.6914 153.455 77.4874 152.889L69.3444 130.064C69.1875 129.624 69.1386 129.153 69.2018 128.69C69.265 128.227 69.4385 127.786 69.7077 127.404C69.9769 127.021 70.334 126.709 70.7489 126.494C71.1638 126.278 71.6245 126.165 72.0922 126.164L162.021 126.039C162.448 126.039 162.871 126.132 163.258 126.312C163.646 126.493 163.989 126.756 164.264 127.083C164.538 127.41 164.738 127.794 164.848 128.206C164.959 128.619 164.977 129.051 164.902 129.471L164.971 129.5L164.713 130.102L164.711 130.109L154.867 153.057C154.642 153.583 154.268 154.031 153.791 154.345C153.314 154.66 152.755 154.827 152.183 154.827ZM162.025 127.36L72.0948 127.485C71.8386 127.485 71.5862 127.547 71.3589 127.665C71.1316 127.783 70.936 127.954 70.7885 128.163C70.641 128.373 70.5459 128.614 70.5113 128.868C70.4766 129.122 70.5034 129.38 70.5894 129.621L78.7321 152.444C78.844 152.754 79.0488 153.023 79.3186 153.213C79.5884 153.403 79.9102 153.505 80.2404 153.506H152.183C152.496 153.506 152.802 153.415 153.063 153.243C153.324 153.07 153.529 152.825 153.652 152.538L163.496 129.588C163.6 129.345 163.643 129.08 163.619 128.816C163.596 128.553 163.507 128.299 163.361 128.078C163.215 127.857 163.017 127.676 162.784 127.551C162.551 127.425 162.29 127.36 162.025 127.36Z" fill="#3F3D56"/>
<path d="M116.966 159.795C120.078 159.795 122.6 157.275 122.6 154.166C122.6 151.058 120.078 148.538 116.966 148.538C113.855 148.538 111.333 151.058 111.333 154.166C111.333 157.275 113.855 159.795 116.966 159.795Z" fill="white"/>
<path d="M329.773 110.933C332.884 110.933 335.406 108.413 335.406 105.304C335.406 102.196 332.884 99.676 329.773 99.676C326.662 99.676 324.139 102.196 324.139 105.304C324.139 108.413 326.662 110.933 329.773 110.933Z" fill="white"/>
<path d="M542.841 186.944L527.793 172.1C527.06 171.372 526.191 170.795 525.235 170.403C524.279 170.011 523.255 169.811 522.221 169.815H522.168C521.127 169.819 520.097 170.028 519.137 170.431C518.177 170.835 517.307 171.424 516.577 172.166C513.212 175.568 511.299 180.141 511.238 184.924C511.178 189.706 512.976 194.326 516.253 197.812C516.412 197.984 516.577 198.149 516.742 198.314C517.658 199.223 518.668 200.031 519.756 200.724C522.731 202.645 526.2 203.661 529.742 203.649H529.854C532.286 203.641 534.691 203.151 536.931 202.208C539.172 201.265 541.203 199.888 542.907 198.156C544.384 196.659 545.206 194.638 545.194 192.536C545.181 190.434 544.335 188.423 542.841 186.944ZM541.969 197.224C539.175 200.037 535.496 201.801 531.552 202.219C527.608 202.638 523.641 201.685 520.318 199.522C519.367 198.894 518.48 198.175 517.668 197.376C514.425 194.177 512.588 189.821 512.559 185.268C512.531 180.715 514.313 176.337 517.516 173.097C518.124 172.477 518.85 171.985 519.651 171.648C520.452 171.312 521.313 171.137 522.182 171.136H522.221C523.082 171.133 523.934 171.299 524.73 171.626C525.526 171.952 526.25 172.432 526.861 173.038L541.909 187.888C543.155 189.119 543.861 190.793 543.872 192.544C543.883 194.294 543.199 195.978 541.969 197.224Z" fill="#3F3D56"/>
<path d="M493.466 138.227L478.417 123.377C476.936 121.908 474.933 121.087 472.846 121.092H472.8C471.757 121.096 470.726 121.307 469.765 121.711C468.804 122.116 467.933 122.707 467.202 123.449C464.42 126.272 462.617 129.91 462.055 133.832C461.494 137.753 462.204 141.751 464.083 145.239L464.089 145.246C464.864 146.673 465.827 147.989 466.951 149.161C467.077 149.307 467.222 149.452 467.367 149.597C470.823 153.024 475.498 154.943 480.367 154.932H480.486C482.917 154.922 485.323 154.431 487.563 153.487C489.803 152.543 491.834 151.165 493.539 149.432C494.27 148.692 494.849 147.814 495.241 146.85C495.634 145.887 495.832 144.855 495.825 143.814C495.818 142.774 495.607 141.745 495.202 140.786C494.797 139.827 494.207 138.958 493.466 138.227ZM492.593 148.508C491.012 150.115 489.127 151.394 487.047 152.27C484.968 153.146 482.736 153.602 480.479 153.612H480.367C476.978 153.61 473.665 152.608 470.845 150.731C468.025 148.853 465.824 146.184 464.518 143.06C463.212 139.936 462.859 136.496 463.505 133.172C464.151 129.848 465.766 126.789 468.147 124.38C469.379 123.136 471.055 122.431 472.807 122.419C474.559 122.408 476.244 123.092 477.492 124.321L492.541 139.164C493.786 140.398 494.49 142.074 494.5 143.825C494.51 145.577 493.824 147.261 492.593 148.508Z" fill="#3F3D56"/>
<path d="M543.803 191.61L527.212 175.239C526.124 174.168 524.656 173.572 523.128 173.581C521.601 173.591 520.14 174.205 519.065 175.29C517.721 176.647 516.658 178.255 515.936 180.022C515.214 181.79 514.848 183.682 514.859 185.591C514.87 187.5 515.257 189.388 515.999 191.148C516.741 192.907 517.822 194.503 519.182 195.845C520.541 197.186 522.152 198.247 523.922 198.966C525.692 199.685 527.586 200.048 529.497 200.035C531.408 200.023 533.297 199.633 535.057 198.89C536.817 198.148 538.413 197.065 539.755 195.706L543.803 191.61Z" fill="#6C63FF"/>
<path d="M494.431 142.891L477.84 126.52C476.752 125.449 475.284 124.852 473.756 124.862C472.229 124.871 470.768 125.486 469.693 126.57C468.349 127.927 467.286 129.535 466.564 131.303C465.842 133.07 465.476 134.963 465.487 136.872C465.498 138.781 465.885 140.669 466.627 142.428C467.368 144.188 468.45 145.784 469.809 147.125C471.169 148.467 472.78 149.527 474.55 150.246C476.32 150.965 478.214 151.329 480.125 151.316C482.035 151.303 483.925 150.914 485.685 150.171C487.445 149.428 489.041 148.346 490.382 146.986L494.431 142.891Z" fill="#6C63FF"/>
<path d="M525.572 201.807L525.175 202.85C523.312 202.144 521.505 201.435 519.756 200.724C488.774 188.092 473.983 173.308 464.089 145.246L464.083 145.239C463.613 143.918 463.157 142.567 462.715 141.185L463.759 140.848C464.108 142.177 464.618 143.459 465.279 144.665C465.821 146.203 466.378 147.702 466.951 149.161C476.25 172.846 489.963 186.382 516.253 197.812C517.575 198.387 518.93 198.957 520.318 199.522C521.929 200.571 523.705 201.343 525.572 201.807Z" fill="#3F3D56"/>
<path d="M478.142 153.73L477.213 154.67L511.538 188.542L512.467 187.602L478.142 153.73Z" fill="#3F3D56"/>
<path d="M187.537 125.665L187.555 103.965L174.788 105.105L179.294 118.791L162.939 143.561C161.916 143.791 160.982 144.312 160.251 145.063C159.52 145.813 159.023 146.76 158.821 147.787C158.619 148.815 158.721 149.879 159.114 150.85C159.507 151.821 160.174 152.656 161.034 153.255C161.894 153.854 162.91 154.189 163.958 154.221C165.005 154.253 166.04 153.979 166.934 153.434C167.829 152.888 168.546 152.094 168.997 151.149C169.448 150.204 169.614 149.148 169.475 148.11L187.537 125.665Z" fill="#FFB6B6"/>
</g>
<defs>
<clipPath id="clip0_62_2">
<rect width="591" height="296" fill="white"/>
</clipPath>
</defs>
</svg>
