<svg width="571" height="367" viewBox="0 0 571 367" fill="none" xmlns="http://www.w3.org/2000/svg">
<g clip-path="url(#clip0_42_146)">
<path d="M533.737 324.269H389.45C384.201 324.263 379.168 322.171 375.456 318.452C371.744 314.732 369.656 309.69 369.65 304.43V76.3821C369.656 71.1223 371.744 66.0795 375.456 62.3602C379.168 58.641 384.201 56.5489 389.45 56.543H533.737C538.987 56.5489 544.02 58.641 547.732 62.3602C551.443 66.0795 553.531 71.1223 553.537 76.3821V304.43C553.531 309.69 551.443 314.732 547.732 318.452C544.02 322.171 538.987 324.263 533.737 324.269Z" fill="#E6E6E6"/>
<path d="M536.13 68.3813H389.178C387.535 68.3834 385.959 69.0383 384.798 70.2026C383.636 71.3669 382.982 72.9453 382.98 74.5919V305.613C382.982 307.259 383.636 308.838 384.798 310.002C385.96 311.166 387.535 311.821 389.178 311.824H536.13C537.773 311.822 539.349 311.167 540.511 310.002C541.673 308.838 542.326 307.26 542.328 305.613V74.5919C542.326 72.9453 541.673 71.3669 540.511 70.2026C539.349 69.0383 537.773 68.3834 536.13 68.3813Z" fill="white"/>
<path d="M392.977 56.5431C392.978 56.1407 393.137 55.755 393.421 55.4705C393.705 55.1859 394.09 55.0259 394.492 55.0254H404.792C405.194 55.0254 405.579 55.1853 405.863 55.4699C406.147 55.7546 406.307 56.1406 406.307 56.5431C406.307 56.9456 406.147 57.3317 405.863 57.6163C405.579 57.9009 405.194 58.0608 404.792 58.0608H394.492C394.09 58.0603 393.705 57.9003 393.421 57.6158C393.137 57.3312 392.978 56.9455 392.977 56.5431Z" fill="#E6E6E6"/>
<path d="M409.942 56.5431C409.942 56.1407 410.102 55.755 410.386 55.4705C410.67 55.1859 411.055 55.0259 411.457 55.0254H421.757C422.158 55.0254 422.544 55.1853 422.828 55.4699C423.112 55.7546 423.271 56.1406 423.271 56.5431C423.271 56.9456 423.112 57.3317 422.828 57.6163C422.544 57.9009 422.158 58.0608 421.757 58.0608H411.457C411.055 58.0604 410.67 57.9003 410.386 57.6158C410.102 57.3313 409.942 56.9455 409.942 56.5431Z" fill="#E6E6E6"/>
<path d="M511.731 56.5431C511.731 56.1407 511.891 55.755 512.175 55.4705C512.459 55.1859 512.844 55.0259 513.246 55.0254H523.546C523.948 55.0254 524.333 55.1853 524.617 55.4699C524.901 55.7546 525.061 56.1406 525.061 56.5431C525.061 56.9456 524.901 57.3317 524.617 57.6163C524.333 57.9009 523.948 58.0608 523.546 58.0608H513.246C512.844 58.0604 512.459 57.9003 512.175 57.6158C511.891 57.3313 511.731 56.9455 511.731 56.5431Z" fill="#E6E6E6"/>
<path d="M483.018 307.064C483.018 308.661 482.988 310.251 482.915 311.823H389.178C387.535 311.821 385.96 311.166 384.798 310.002C383.636 308.837 382.982 307.259 382.98 305.613V189.331C410.894 193.85 436.291 208.179 454.622 229.752C472.952 251.325 483.018 278.732 483.018 307.064Z" fill="#F2F2F2"/>
<path d="M479.835 127.749H444.876C443.285 127.749 441.995 129.041 441.995 130.635V134.237C441.995 135.831 443.285 137.123 444.876 137.123H479.835C481.426 137.123 482.715 135.831 482.715 134.237V130.635C482.715 129.041 481.426 127.749 479.835 127.749Z" fill="#6C63FF"/>
<path d="M502.053 146.497H422.657C421.066 146.497 419.777 147.789 419.777 149.383V152.984C419.777 154.578 421.066 155.871 422.657 155.871H502.053C503.644 155.871 504.934 154.578 504.934 152.984V149.383C504.934 147.789 503.644 146.497 502.053 146.497Z" fill="#E6E6E6"/>
<path d="M502.053 165.244H422.657C421.066 165.244 419.777 166.537 419.777 168.131V171.732C419.777 173.326 421.066 174.618 422.657 174.618H502.053C503.644 174.618 504.934 173.326 504.934 171.732V168.131C504.934 166.537 503.644 165.244 502.053 165.244Z" fill="#E6E6E6"/>
<path d="M488.458 296.035C488.003 296.056 487.552 295.936 487.167 295.692C486.782 295.448 486.481 295.091 486.305 294.67C486.13 294.248 486.087 293.783 486.184 293.337C486.281 292.891 486.513 292.485 486.847 292.175L487 291.569C486.98 291.52 486.959 291.471 486.939 291.423C486.48 290.338 485.712 289.412 484.73 288.763C483.748 288.114 482.597 287.77 481.421 287.774C480.244 287.779 479.096 288.131 478.119 288.788C477.142 289.444 476.38 290.375 475.93 291.464C474.129 295.809 471.836 300.162 471.272 304.757C471.023 306.787 471.128 308.846 471.582 310.841C467.353 301.597 465.157 291.551 465.142 281.382C465.142 278.83 465.283 276.28 465.566 273.744C465.8 271.665 466.125 269.601 466.54 267.552C468.807 256.433 473.674 246.011 480.741 237.142C484.162 235.272 486.928 232.396 488.667 228.902C489.297 227.646 489.743 226.306 489.989 224.922C489.604 224.973 489.211 225.004 488.825 225.03C488.705 225.036 488.579 225.042 488.459 225.049L488.413 225.051C487.989 225.07 487.569 224.966 487.202 224.751C486.836 224.536 486.539 224.219 486.348 223.84C486.157 223.46 486.08 223.033 486.125 222.61C486.171 222.187 486.337 221.786 486.605 221.456C486.771 221.251 486.938 221.045 487.105 220.84C487.358 220.523 487.617 220.213 487.87 219.896C487.9 219.866 487.927 219.834 487.953 219.801C488.244 219.439 488.534 219.084 488.826 218.723C488.294 217.897 487.58 217.205 486.738 216.701C483.822 214.99 479.799 216.175 477.692 218.818C475.58 221.461 475.181 225.169 475.915 228.471C476.637 231.281 477.83 233.947 479.445 236.356C479.287 236.559 479.122 236.755 478.964 236.958C476.073 240.682 473.554 244.682 471.441 248.899C471.955 244.175 471.342 239.396 469.653 234.955C467.941 230.817 464.731 227.331 461.905 223.753C458.511 219.456 451.55 221.332 450.952 226.779C450.946 226.832 450.941 226.885 450.935 226.937C451.355 227.175 451.766 227.426 452.168 227.693C452.673 228.031 453.064 228.514 453.291 229.079C453.517 229.644 453.568 230.264 453.436 230.858C453.305 231.452 452.998 231.993 452.554 232.409C452.111 232.825 451.553 233.097 450.953 233.19L450.891 233.199C451.041 234.715 451.305 236.217 451.682 237.693C452.774 241.813 454.703 245.662 457.349 248.999C459.995 252.337 463.301 255.09 467.059 257.088C467.306 257.214 467.546 257.341 467.793 257.462C465.671 263.487 464.34 269.764 463.833 276.134C463.546 279.892 463.563 283.667 463.884 287.422L463.865 287.289C463.055 283.113 460.832 279.345 457.571 276.622C452.727 272.635 445.884 271.167 440.659 267.962C440.104 267.605 439.458 267.415 438.798 267.413C438.138 267.411 437.491 267.599 436.934 267.953C436.377 268.308 435.933 268.815 435.654 269.414C435.375 270.013 435.273 270.68 435.359 271.335C435.366 271.382 435.373 271.429 435.381 271.475C436.16 271.793 436.918 272.159 437.652 272.572C438.071 272.809 438.482 273.061 438.884 273.327C439.389 273.665 439.781 274.148 440.007 274.713C440.233 275.278 440.284 275.898 440.153 276.492C440.021 277.086 439.714 277.627 439.271 278.043C438.827 278.459 438.269 278.731 437.669 278.824L437.607 278.834C437.563 278.84 437.525 278.846 437.481 278.853C438.812 282.037 440.68 284.968 443.003 287.517C445.873 290.603 449.342 293.068 453.197 294.763C457.052 296.458 461.211 297.346 465.421 297.373H465.427C466.57 302.348 468.226 307.191 470.367 311.824H488.016C488.079 311.627 488.136 311.424 488.193 311.228C486.559 311.331 484.919 311.233 483.31 310.936C484.619 309.326 485.928 307.704 487.238 306.094C487.267 306.064 487.294 306.032 487.32 305.999C487.984 305.175 488.655 304.357 489.319 303.533L489.319 303.532C489.355 301.007 489.065 298.487 488.458 296.035ZM468.248 256.2L468.258 256.188L468.248 256.213V256.2ZM464.339 291.51L464.187 291.168C464.194 290.92 464.194 290.673 464.187 290.42C464.187 290.35 464.175 290.28 464.175 290.211C464.232 290.648 464.282 291.085 464.346 291.523L464.339 291.51Z" fill="#CCCCCC"/>
<path d="M528.785 88.7773H396.523C396.237 88.7709 395.965 88.6526 395.765 88.4476C395.565 88.2426 395.453 87.9673 395.453 87.6805C395.453 87.3937 395.565 87.1184 395.765 86.9134C395.965 86.7084 396.237 86.5901 396.523 86.5837H528.785C529.071 86.5901 529.343 86.7084 529.543 86.9134C529.743 87.1184 529.855 87.3937 529.855 87.6805C529.855 87.9673 529.743 88.2426 529.543 88.4476C529.343 88.6526 529.071 88.7709 528.785 88.7773Z" fill="#CACACA"/>
<path d="M403.58 83.4123C405.357 83.4123 406.797 81.9369 406.797 80.1169C406.797 78.2969 405.357 76.8215 403.58 76.8215C401.803 76.8215 400.363 78.2969 400.363 80.1169C400.363 81.9369 401.803 83.4123 403.58 83.4123Z" fill="#3F3D56"/>
<path d="M414.694 83.4123C416.471 83.4123 417.911 81.9369 417.911 80.1169C417.911 78.2969 416.471 76.8215 414.694 76.8215C412.917 76.8215 411.477 78.2969 411.477 80.1169C411.477 81.9369 412.917 83.4123 414.694 83.4123Z" fill="#3F3D56"/>
<path d="M425.808 83.4123C427.585 83.4123 429.025 81.9369 429.025 80.1169C429.025 78.2969 427.585 76.8215 425.808 76.8215C424.031 76.8215 422.591 78.2969 422.591 80.1169C422.591 81.9369 424.031 83.4123 425.808 83.4123Z" fill="#3F3D56"/>
<path d="M523.615 78.0947H516.415C516.273 78.0975 516.137 78.1564 516.037 78.2585C515.937 78.3606 515.881 78.4979 515.881 78.6409C515.881 78.784 515.937 78.9213 516.037 79.0234C516.137 79.1255 516.273 79.1843 516.415 79.1872H523.615C523.758 79.1843 523.894 79.1255 523.993 79.0234C524.093 78.9213 524.149 78.784 524.149 78.6409C524.149 78.4979 524.093 78.3606 523.993 78.2585C523.894 78.1564 523.758 78.0975 523.615 78.0947Z" fill="#3F3D56"/>
<path d="M523.615 80.145H516.415C516.273 80.1478 516.137 80.2066 516.037 80.3088C515.937 80.4109 515.881 80.5482 515.881 80.6912C515.881 80.8343 515.937 80.9716 516.037 81.0737C516.137 81.1758 516.273 81.2346 516.415 81.2374H523.615C523.758 81.2346 523.894 81.1758 523.993 81.0737C524.093 80.9716 524.149 80.8343 524.149 80.6912C524.149 80.5482 524.093 80.4109 523.993 80.3088C523.894 80.2066 523.758 80.1478 523.615 80.145Z" fill="#3F3D56"/>
<path d="M523.615 82.1926H516.415C516.273 82.1954 516.137 82.2542 516.037 82.3564C515.937 82.4585 515.881 82.5958 515.881 82.7388C515.881 82.8819 515.937 83.0192 516.037 83.1213C516.137 83.2234 516.273 83.2822 516.415 83.2851H523.615C523.758 83.2822 523.894 83.2234 523.993 83.1213C524.093 83.0192 524.149 82.8819 524.149 82.7388C524.149 82.5958 524.093 82.4585 523.993 82.3564C523.894 82.2542 523.758 82.1954 523.615 82.1926Z" fill="#3F3D56"/>
<path d="M309.022 189.418H232.341C231.256 189.42 230.216 189.853 229.45 190.623C228.684 191.392 228.254 192.435 228.255 193.522V314.896H313.118V193.522C313.118 192.983 313.012 192.449 312.807 191.951C312.601 191.453 312.299 191.001 311.919 190.62C311.538 190.238 311.087 189.936 310.59 189.73C310.093 189.524 309.56 189.418 309.022 189.418ZM270.939 258.382C268.541 258.37 266.245 257.411 264.549 255.712C262.853 254.013 261.896 251.712 261.884 249.309V235.309C261.887 232.904 262.841 230.599 264.539 228.899C266.237 227.199 268.539 226.244 270.939 226.244C273.339 226.244 275.641 227.199 277.339 228.899C279.037 230.599 279.992 232.904 279.994 235.309V249.309C279.983 251.712 279.025 254.013 277.33 255.712C275.634 257.411 273.337 258.37 270.939 258.382Z" fill="#E6E6E6"/>
<path d="M227.992 311.014V322.724C227.993 323.331 228.234 323.912 228.663 324.342C229.091 324.771 229.671 325.012 230.277 325.013H311.096C311.701 325.01 312.281 324.768 312.709 324.34C313.136 323.911 313.378 323.33 313.381 322.724V311.014L227.992 311.014Z" fill="#CCCCCC"/>
<path d="M436 0H108.216C105.4 0.0044891 102.7 1.12741 100.709 3.12269C98.7177 5.11797 97.597 7.82286 97.5925 10.6446V232.273C97.5952 235.095 98.7153 237.801 100.707 239.796C102.699 241.792 105.399 242.914 108.216 242.917H436C438.817 242.914 441.517 241.792 443.509 239.796C445.501 237.801 446.621 235.095 446.623 232.273V10.6446C446.619 7.82286 445.498 5.11797 443.507 3.12269C441.516 1.12741 438.816 0.00448734 436 0Z" fill="#E6E6E6"/>
<path d="M433.264 7.68848H110.955C109.447 7.69176 108.002 8.29421 106.937 9.36365C105.872 10.4331 105.273 11.8822 105.273 13.3931V229.528C105.276 231.037 105.875 232.483 106.94 233.55C108.005 234.617 109.449 235.218 110.955 235.22H433.264C434.77 235.218 436.213 234.617 437.278 233.55C438.343 232.483 438.943 231.037 438.945 229.528V13.3931C438.945 11.8822 438.347 10.4331 437.282 9.36365C436.217 8.29421 434.772 7.69176 433.264 7.68848Z" fill="white"/>
<path d="M438.945 13.3931V229.528C438.943 231.037 438.343 232.483 437.278 233.55C436.213 234.617 434.77 235.218 433.264 235.22H319.61C307.038 223.537 296.723 209.631 289.183 194.2C288.687 193.205 288.215 192.199 287.766 191.182C280.896 176.246 276.737 160.203 275.482 143.805C275.399 142.799 275.328 141.793 275.281 140.775C275.127 138.172 275.056 135.532 275.056 132.881C275.034 115.25 278.357 97.7744 284.848 81.3863C285.238 80.3685 285.651 79.3625 286.077 78.3565C299.141 47.6001 322.748 22.5362 352.636 7.68848H433.264C434.772 7.69176 436.217 8.29421 437.282 9.36365C438.347 10.4331 438.945 11.8822 438.945 13.3931Z" fill="#6C63FF"/>
<path d="M417.062 37.4671H115.479C115.165 37.4604 114.866 37.3308 114.647 37.1062C114.427 36.8816 114.305 36.5798 114.305 36.2654C114.305 35.9511 114.427 35.6492 114.647 35.4246C114.866 35.2 115.165 35.0704 115.479 35.0637H417.062C417.376 35.0704 417.674 35.2 417.894 35.4246C418.113 35.6492 418.236 35.9511 418.236 36.2654C418.236 36.5798 418.113 36.8816 417.894 37.1062C417.674 37.3308 417.376 37.4604 417.062 37.4671Z" fill="#CACACA"/>
<path d="M136.008 28.9281C139.889 28.9281 143.036 25.7048 143.036 21.7287C143.036 17.7526 139.889 14.5293 136.008 14.5293C132.126 14.5293 128.979 17.7526 128.979 21.7287C128.979 25.7048 132.126 28.9281 136.008 28.9281Z" fill="#3F3D56"/>
<path d="M160.288 28.9281C164.17 28.9281 167.317 25.7048 167.317 21.7287C167.317 17.7526 164.17 14.5293 160.288 14.5293C156.406 14.5293 153.26 17.7526 153.26 21.7287C153.26 25.7048 156.406 28.9281 160.288 28.9281Z" fill="#3F3D56"/>
<path d="M184.569 28.9281C188.45 28.9281 191.597 25.7048 191.597 21.7287C191.597 17.7526 188.45 14.5293 184.569 14.5293C180.687 14.5293 177.54 17.7526 177.54 21.7287C177.54 25.7048 180.687 28.9281 184.569 28.9281Z" fill="#3F3D56"/>
<path d="M402.443 16.3137H385.195C384.854 16.3205 384.528 16.4613 384.289 16.706C384.049 16.9507 383.915 17.2796 383.915 17.6223C383.915 17.9649 384.049 18.2939 384.289 18.5385C384.528 18.7832 384.854 18.924 385.195 18.9308H402.443C402.785 18.924 403.11 18.7832 403.35 18.5385C403.589 18.2939 403.723 17.9649 403.723 17.6223C403.723 17.2796 403.589 16.9507 403.35 16.706C403.11 16.4613 402.785 16.3205 402.443 16.3137Z" fill="#3F3D56"/>
<path d="M402.443 21.2256H385.195C384.854 21.2324 384.528 21.3732 384.289 21.6179C384.049 21.8625 383.915 22.1915 383.915 22.5341C383.915 22.8767 384.049 23.2057 384.289 23.4504C384.528 23.695 384.854 23.8359 385.195 23.8427H402.443C402.785 23.8359 403.11 23.695 403.35 23.4504C403.589 23.2057 403.723 22.8767 403.723 22.5341C403.723 22.1915 403.589 21.8625 403.35 21.6179C403.11 21.3732 402.785 21.2324 402.443 21.2256Z" fill="#3F3D56"/>
<path d="M402.443 26.1309H385.195C384.854 26.1376 384.528 26.2785 384.289 26.5231C384.049 26.7678 383.915 27.0968 383.915 27.4394C383.915 27.782 384.049 28.111 384.289 28.3557C384.528 28.6003 384.854 28.7412 385.195 28.7479H402.443C402.785 28.7412 403.11 28.6003 403.35 28.3557C403.589 28.111 403.723 27.782 403.723 27.4394C403.723 27.0968 403.589 26.7678 403.35 26.5231C403.11 26.2785 402.785 26.1376 402.443 26.1309Z" fill="#3F3D56"/>
<path d="M207.82 107.671H165.646C164.055 107.671 162.765 108.963 162.765 110.557V115.055C162.765 116.649 164.055 117.941 165.646 117.941H207.82C209.41 117.941 210.7 116.649 210.7 115.055V110.557C210.7 108.963 209.41 107.671 207.82 107.671Z" fill="#6C63FF"/>
<path d="M232.164 128.212H141.301C139.711 128.212 138.421 129.504 138.421 131.098V135.597C138.421 137.191 139.711 138.483 141.301 138.483H232.164C233.755 138.483 235.044 137.191 235.044 135.597V131.098C235.044 129.504 233.755 128.212 232.164 128.212Z" fill="#E6E6E6"/>
<path d="M232.164 148.753H141.301C139.711 148.753 138.421 150.045 138.421 151.639V156.138C138.421 157.732 139.711 159.024 141.301 159.024H232.164C233.755 159.024 235.044 157.732 235.044 156.138V151.639C235.044 150.045 233.755 148.753 232.164 148.753Z" fill="#E6E6E6"/>
<path d="M146.307 222.829C146.315 227.059 145.562 231.257 144.087 235.22H110.955C109.449 235.218 108.005 234.617 106.94 233.55C105.875 232.483 105.276 231.037 105.273 229.528V187.773C107.124 187.473 108.997 187.323 110.872 187.323C115.526 187.323 120.134 188.241 124.433 190.025C128.732 191.81 132.639 194.425 135.929 197.722C139.22 201.019 141.83 204.933 143.611 209.241C145.391 213.549 146.308 218.166 146.307 222.829Z" fill="#6C63FF"/>
<path opacity="0.2" d="M439.241 81.3863V78.3565H388.556V43.2415H385.544V78.3565H327.454V43.2415H324.441V78.3565H286.077C285.651 79.3625 285.238 80.3685 284.848 81.3864H324.441V140.775H275.281C275.328 141.793 275.399 142.799 275.482 143.805H324.441V191.182H287.766C288.215 192.199 288.687 193.205 289.183 194.2H324.441V234.025H327.454V194.2H385.544V234.025H388.556V194.2H439.241V191.182H388.556C388.556 184.96 389.779 178.799 392.155 173.051C394.531 167.303 398.014 162.081 402.405 157.681C406.796 153.282 412.008 149.792 417.744 147.412C423.481 145.031 429.63 143.805 435.839 143.805H439.241V140.775H388.556V81.3863H439.241ZM385.544 191.182H327.454V143.805H385.544V191.182ZM385.544 140.775H327.454V139.592C327.454 124.155 333.574 109.35 344.468 98.4343C355.362 87.5187 370.137 81.3863 385.544 81.3863L385.544 140.775Z" fill="black"/>
<path d="M398.432 212.797C397.785 212.827 397.145 212.657 396.598 212.31C396.052 211.963 395.624 211.456 395.375 210.858C395.125 210.26 395.065 209.599 395.203 208.965C395.34 208.332 395.669 207.756 396.144 207.316C396.224 206.999 396.281 206.771 396.36 206.454C396.332 206.385 396.303 206.316 396.275 206.247C393.369 199.304 383.52 199.352 380.639 206.305C378.082 212.477 374.826 218.659 374.024 225.184C373.671 228.068 373.82 230.992 374.464 233.825C368.458 220.697 365.339 206.428 365.319 191.986C365.317 188.362 365.518 184.741 365.921 181.14C366.253 178.187 366.714 175.256 367.304 172.345C370.523 156.553 377.435 141.752 387.472 129.156C392.33 126.5 396.259 122.416 398.729 117.454C399.624 115.67 400.256 113.766 400.607 111.801C400.059 111.873 399.502 111.918 398.954 111.954C398.783 111.963 398.603 111.972 398.433 111.981L398.368 111.984C397.766 112.011 397.169 111.863 396.648 111.558C396.128 111.253 395.707 110.804 395.435 110.264C395.164 109.725 395.054 109.118 395.119 108.518C395.183 107.917 395.42 107.348 395.8 106.879C396.036 106.587 396.273 106.296 396.51 106.004C396.869 105.554 397.238 105.113 397.597 104.663C397.639 104.62 397.677 104.575 397.714 104.528C398.127 104.015 398.54 103.511 398.954 102.998C398.199 101.824 397.185 100.842 395.989 100.126C391.847 97.6958 386.134 99.379 383.142 103.133C380.142 106.886 379.576 112.152 380.618 116.842C381.507 120.857 383.448 124.538 385.631 128.04C385.406 128.328 385.173 128.607 384.948 128.895C380.842 134.185 377.264 139.865 374.264 145.854C374.994 139.144 374.123 132.357 371.724 126.05C369.292 120.173 364.735 115.223 360.721 110.142C355.9 104.039 346.015 106.702 345.165 114.439C345.157 114.514 345.149 114.589 345.141 114.664C345.737 115.001 346.321 115.358 346.892 115.737C347.609 116.217 348.165 116.903 348.486 117.705C348.808 118.507 348.88 119.388 348.694 120.232C348.507 121.075 348.07 121.843 347.441 122.434C346.811 123.025 346.018 123.412 345.166 123.543L345.078 123.557C345.291 125.71 345.666 127.843 346.201 129.939C347.752 135.79 350.492 141.256 354.251 145.996C358.009 150.736 362.703 154.647 368.041 157.484C368.391 157.664 368.732 157.844 369.083 158.015C366.069 166.573 364.179 175.487 363.459 184.533C363.052 189.87 363.076 195.232 363.531 200.565L363.504 200.376C362.354 194.445 359.197 189.094 354.565 185.226C347.686 179.564 337.968 177.479 330.547 172.928C326.974 170.737 322.397 173.568 323.02 177.718C323.03 177.785 323.04 177.851 323.05 177.917C324.157 178.368 325.234 178.889 326.276 179.474C326.872 179.811 327.455 180.169 328.026 180.547C328.743 181.027 329.299 181.713 329.621 182.516C329.942 183.318 330.014 184.198 329.828 185.042C329.641 185.886 329.205 186.654 328.575 187.245C327.946 187.836 327.153 188.223 326.3 188.354L326.213 188.368C326.15 188.377 326.096 188.386 326.033 188.395C327.923 192.917 330.576 197.079 333.876 200.7C337.952 205.082 342.878 208.584 348.353 210.991C353.828 213.398 359.735 214.659 365.714 214.697H365.723C367.346 221.763 369.697 228.641 372.739 235.22H397.804C397.894 234.941 397.974 234.653 398.055 234.374C395.735 234.52 393.406 234.381 391.12 233.96C392.979 231.674 394.839 229.369 396.699 227.083C396.74 227.04 396.779 226.995 396.815 226.948C397.759 225.778 398.711 224.617 399.654 223.447L399.655 223.445C399.705 219.858 399.294 216.28 398.433 212.798L398.432 212.797ZM369.73 156.223L369.743 156.206L369.73 156.241V156.223ZM364.178 206.371L363.962 205.885C363.971 205.534 363.971 205.183 363.962 204.823C363.962 204.723 363.944 204.624 363.944 204.525C364.025 205.146 364.097 205.768 364.187 206.389L364.178 206.371Z" fill="#2F2E41"/>
<path d="M175.241 154.06V120.308C175.241 115.127 173.187 110.158 169.531 106.494C165.875 102.831 160.916 100.772 155.745 100.772H84.3763C79.2054 100.772 74.2464 102.831 70.5901 106.494C66.9338 110.158 64.8797 115.127 64.8797 120.308V305.478C64.8797 310.659 66.9338 315.628 70.5901 319.292C74.2464 322.955 79.2054 325.013 84.3762 325.013H155.745C158.305 325.013 160.84 324.508 163.206 323.526C165.571 322.545 167.721 321.106 169.531 319.292C171.341 317.478 172.778 315.324 173.757 312.954C174.737 310.584 175.241 308.044 175.241 305.478V178.086C175.568 178.086 175.88 177.956 176.111 177.725C176.341 177.494 176.471 177.181 176.471 176.854V155.293C176.471 154.966 176.342 154.652 176.111 154.421C175.88 154.19 175.568 154.06 175.241 154.06Z" fill="#E6E6E6"/>
<path d="M171.092 120.442V305.345C171.093 309.186 169.581 312.871 166.884 315.601C164.188 318.332 160.526 319.885 156.693 319.925C156.64 319.931 156.587 319.933 156.534 319.932H84.8179C80.9569 319.932 77.2541 318.395 74.524 315.659C71.7939 312.924 70.2599 309.214 70.2596 305.345V120.442C70.2599 116.573 71.7939 112.863 74.524 110.128C77.2541 107.392 80.9569 105.855 84.8179 105.855H93.5209C93.0931 106.907 92.9301 108.049 93.0461 109.18C93.1622 110.311 93.5538 111.396 94.1866 112.339C94.8194 113.283 95.6738 114.056 96.6748 114.591C97.6758 115.126 98.7927 115.406 99.9271 115.407H140.814C141.947 115.403 143.063 115.122 144.062 114.586C145.061 114.05 145.914 113.277 146.546 112.334C147.178 111.391 147.569 110.307 147.685 109.178C147.802 108.048 147.64 106.907 147.213 105.855H156.534C160.395 105.855 164.098 107.392 166.828 110.128C169.558 112.863 171.092 116.573 171.092 120.442Z" fill="white"/>
<path d="M156.872 314.225C156.872 316.141 156.813 318.041 156.693 319.925C156.64 319.931 156.587 319.933 156.534 319.932H84.8179C80.9569 319.932 77.2541 318.395 74.524 315.659C71.7939 312.924 70.2599 309.214 70.2596 305.345V222.944C93.6258 224.125 115.646 234.257 131.766 251.246C147.887 268.236 156.875 290.783 156.872 314.225Z" fill="#F2F2F2"/>
<path d="M65.2741 172.943C64.8341 172.943 64.4122 172.767 64.1011 172.456C63.79 172.144 63.615 171.721 63.6144 171.28V159.972C63.6144 159.531 63.7893 159.108 64.1005 158.797C64.4118 158.485 64.8339 158.31 65.2741 158.31C65.7142 158.31 66.1364 158.485 66.4476 158.797C66.7588 159.108 66.9337 159.531 66.9337 159.972V171.28C66.9332 171.721 66.7582 172.144 66.447 172.456C66.1359 172.767 65.7141 172.943 65.2741 172.943Z" fill="#E6E6E6"/>
<path d="M129.481 163.914H111.87C110.279 163.914 108.99 165.206 108.99 166.8V171.299C108.99 172.893 110.279 174.185 111.87 174.185H129.481C131.072 174.185 132.362 172.893 132.362 171.299V166.8C132.362 165.206 131.072 163.914 129.481 163.914Z" fill="#6C63FF"/>
<path d="M153.826 184.455H87.5259C85.9351 184.455 84.6454 185.747 84.6454 187.341V191.84C84.6454 193.434 85.9351 194.726 87.5259 194.726H153.826C155.417 194.726 156.706 193.434 156.706 191.84V187.341C156.706 185.747 155.417 184.455 153.826 184.455Z" fill="#E6E6E6"/>
<path d="M153.826 204.997H87.5259C85.9351 204.997 84.6454 206.289 84.6454 207.883V212.381C84.6454 213.975 85.9351 215.267 87.5259 215.267H153.826C155.417 215.267 156.706 213.975 156.706 212.381V207.883C156.706 206.289 155.417 204.997 153.826 204.997Z" fill="#E6E6E6"/>
<path d="M137.873 309.409C137.57 309.423 137.269 309.344 137.013 309.181C136.756 309.018 136.556 308.78 136.439 308.499C136.321 308.219 136.293 307.909 136.358 307.611C136.422 307.314 136.577 307.044 136.8 306.837L136.901 306.433C136.888 306.4 136.874 306.368 136.861 306.336C136.555 305.612 136.043 304.996 135.389 304.563C134.734 304.13 133.967 303.901 133.183 303.904C132.399 303.907 131.634 304.142 130.982 304.579C130.331 305.017 129.824 305.637 129.524 306.363C128.323 309.259 126.796 312.16 126.419 315.222C126.254 316.576 126.324 317.948 126.626 319.277C123.807 313.117 122.344 306.421 122.334 299.644C122.334 297.943 122.428 296.244 122.617 294.554C122.773 293.168 122.989 291.792 123.266 290.427C124.777 283.016 128.02 276.07 132.73 270.159C135.01 268.913 136.854 266.997 138.013 264.668C138.433 263.831 138.729 262.938 138.894 262.015C138.637 262.049 138.375 262.07 138.118 262.087C138.038 262.091 137.954 262.096 137.874 262.1L137.843 262.101C137.561 262.114 137.28 262.044 137.036 261.901C136.792 261.758 136.594 261.547 136.467 261.294C136.34 261.041 136.288 260.756 136.318 260.475C136.349 260.193 136.46 259.926 136.638 259.706C136.749 259.569 136.86 259.432 136.971 259.295C137.14 259.084 137.313 258.877 137.481 258.666C137.501 258.646 137.519 258.624 137.536 258.602C137.73 258.361 137.924 258.125 138.118 257.884C137.764 257.334 137.288 256.873 136.727 256.537C134.783 255.396 132.102 256.186 130.698 257.948C129.29 259.709 129.025 262.18 129.514 264.381C129.995 266.253 130.79 268.03 131.866 269.636C131.761 269.771 131.651 269.902 131.546 270.037C129.619 272.519 127.94 275.185 126.532 277.995C126.875 274.847 126.466 271.662 125.34 268.702C124.199 265.944 122.06 263.621 120.177 261.237C119.679 260.596 119.002 260.118 118.233 259.863C117.464 259.607 116.636 259.586 115.855 259.802C115.074 260.018 114.374 260.461 113.844 261.075C113.314 261.689 112.977 262.447 112.877 263.253C112.873 263.288 112.869 263.323 112.866 263.359C113.145 263.517 113.419 263.685 113.687 263.862C114.024 264.087 114.285 264.409 114.436 264.786C114.586 265.162 114.62 265.575 114.533 265.971C114.445 266.368 114.24 266.728 113.945 267.005C113.649 267.282 113.277 267.464 112.877 267.526L112.836 267.532C112.936 268.542 113.112 269.543 113.363 270.527C114.091 273.272 115.377 275.838 117.14 278.062C118.904 280.286 121.107 282.122 123.612 283.453C123.776 283.537 123.936 283.622 124.101 283.702C122.686 287.718 121.799 291.901 121.462 296.146C121.271 298.651 121.282 301.166 121.495 303.669L121.483 303.58C120.943 300.798 119.461 298.286 117.288 296.471C114.06 293.814 109.499 292.836 106.017 290.7C105.647 290.462 105.216 290.335 104.777 290.334C104.337 290.333 103.906 290.458 103.535 290.694C103.163 290.93 102.867 291.268 102.681 291.668C102.495 292.067 102.427 292.511 102.485 292.948L102.499 293.041C103.018 293.253 103.524 293.497 104.013 293.772C104.292 293.93 104.566 294.098 104.834 294.276C105.171 294.501 105.432 294.823 105.582 295.199C105.733 295.576 105.767 295.989 105.68 296.385C105.592 296.781 105.387 297.141 105.092 297.419C104.796 297.696 104.424 297.877 104.024 297.939L103.983 297.946C103.954 297.95 103.928 297.954 103.899 297.958C104.786 300.08 106.031 302.034 107.579 303.733C109.492 305.789 111.804 307.432 114.373 308.562C116.942 309.691 119.714 310.283 122.52 310.301H122.524C123.286 313.617 124.389 316.845 125.817 319.932H137.578C137.621 319.801 137.659 319.666 137.696 319.535C136.608 319.603 135.515 319.538 134.442 319.341C135.315 318.268 136.187 317.186 137.06 316.113C137.079 316.093 137.098 316.072 137.115 316.05C137.557 315.501 138.004 314.956 138.447 314.407L138.447 314.406C138.471 312.723 138.278 311.043 137.873 309.409ZM124.404 282.861L124.41 282.853L124.404 282.87V282.861ZM121.799 306.394L121.698 306.166C121.702 306.001 121.702 305.836 121.698 305.667C121.698 305.621 121.689 305.574 121.689 305.528C121.727 305.819 121.761 306.111 121.803 306.402L121.799 306.394Z" fill="#CCCCCC"/>
<path d="M64.9422 150.993C64.5022 150.992 64.0803 150.817 63.7692 150.505C63.4581 150.193 63.2831 149.771 63.2825 149.33V138.022C63.2825 137.581 63.4574 137.158 63.7686 136.846C64.0799 136.534 64.502 136.359 64.9422 136.359C65.3823 136.359 65.8045 136.534 66.1157 136.846C66.4269 137.158 66.6018 137.581 66.6018 138.022V149.33C66.6013 149.771 66.4263 150.193 66.1151 150.505C65.804 150.817 65.3822 150.992 64.9422 150.993Z" fill="#E6E6E6"/>
<path d="M109.088 107.757C109.089 107.316 109.264 106.893 109.575 106.581C109.886 106.27 110.308 106.094 110.748 106.094H122.033C122.474 106.094 122.896 106.269 123.207 106.581C123.518 106.893 123.693 107.316 123.693 107.757C123.693 108.198 123.518 108.621 123.207 108.933C122.896 109.244 122.474 109.42 122.033 109.42H110.748C110.308 109.419 109.886 109.244 109.575 108.932C109.264 108.62 109.089 108.198 109.088 107.757Z" fill="white"/>
<path d="M65.2741 192.233C64.8341 192.233 64.4122 192.057 64.1011 191.745C63.79 191.434 63.615 191.011 63.6144 190.57V179.262C63.6144 178.821 63.7893 178.398 64.1005 178.086C64.4118 177.775 64.8339 177.599 65.2741 177.599C65.7142 177.599 66.1364 177.775 66.4476 178.086C66.7588 178.398 66.9337 178.821 66.9337 179.262V190.57C66.9332 191.011 66.7582 191.434 66.447 191.745C66.1359 192.057 65.7141 192.233 65.2741 192.233Z" fill="#E6E6E6"/>
<path d="M128.34 109.42C129.257 109.42 130 108.675 130 107.757C130 106.838 129.257 106.094 128.34 106.094C127.423 106.094 126.68 106.838 126.68 107.757C126.68 108.675 127.423 109.42 128.34 109.42Z" fill="white"/>
<path d="M570.21 325.009L0.79041 325.213C0.58117 325.213 0.380711 325.129 0.23297 324.981C0.0852281 324.832 0.0022583 324.631 0.0022583 324.421C0.0022583 324.212 0.0852281 324.011 0.23297 323.862C0.380711 323.714 0.58117 323.63 0.79041 323.629L570.21 323.425C570.419 323.425 570.62 323.509 570.768 323.657C570.917 323.806 571 324.007 571 324.217C571 324.427 570.917 324.629 570.768 324.777C570.62 324.926 570.419 325.009 570.21 325.009Z" fill="#CACACA"/>
<path d="M243.483 150.399L240.488 151.042C240.469 149.786 240.312 148.537 240.023 147.315C239.75 148.811 239.176 150.236 238.336 151.502L221.158 155.178L204.666 137.738C204.641 129.019 209.473 122.393 218.138 122.393C218.66 122.393 219.201 122.418 219.749 122.468C224.43 121.683 229.233 122.749 233.146 125.441C237.059 128.132 239.777 132.24 240.727 136.9C246.869 142.959 244.641 146.521 243.483 150.399Z" fill="#2F2E41"/>
<path d="M251.929 354.342H258.159L261.124 330.259L251.927 330.26L251.929 354.342Z" fill="#FFB6B6"/>
<path d="M250.383 351.262L260.233 350.673V354.901L269.598 361.382C270.061 361.702 270.409 362.161 270.592 362.694C270.776 363.226 270.784 363.803 270.617 364.341C270.45 364.879 270.115 365.349 269.662 365.683C269.21 366.016 268.662 366.196 268.1 366.196H256.373L254.352 362.014L253.563 366.196H249.141L250.383 351.262Z" fill="#2F2E41"/>
<path d="M178.929 347.546L184.348 350.627L198.787 331.147L190.788 326.6L178.929 347.546Z" fill="#FFB6B6"/>
<path d="M179.102 344.103L187.959 348.461L185.876 352.139L190.829 362.406C191.074 362.913 191.151 363.485 191.048 364.039C190.945 364.593 190.668 365.099 190.258 365.484C189.848 365.869 189.325 366.112 188.767 366.179C188.209 366.245 187.644 366.131 187.155 365.853L176.956 360.054L177.258 355.417L174.511 358.665L170.666 356.478L179.102 344.103Z" fill="#2F2E41"/>
<path d="M274.961 154.617C274.162 154.733 273.399 155.023 272.724 155.466C272.05 155.91 271.48 156.496 271.056 157.183C270.632 157.871 270.364 158.644 270.27 159.446C270.176 160.249 270.259 161.063 270.513 161.83L260.978 170.099L264.58 177.131L277.881 165.264C279.14 164.751 280.166 163.793 280.767 162.573C281.368 161.352 281.501 159.953 281.141 158.641C280.78 157.328 279.953 156.194 278.814 155.453C277.675 154.711 276.304 154.414 274.961 154.617Z" fill="#FFB6B6"/>
<path d="M265.359 183.053C262.178 187.88 255.05 192.542 244.47 196.674C243.887 196.909 243.261 197.019 242.633 196.998C242.005 196.978 241.387 196.827 240.82 196.555C236.828 194.734 234.269 187.966 234.029 187.31L226.297 176.858C226.159 176.706 222.544 172.594 222.957 168.552C223.05 167.705 223.325 166.888 223.763 166.157C224.201 165.427 224.792 164.8 225.495 164.32C231.348 159.972 244.467 175.072 246.169 177.08L254.731 171.853L260.969 169.064L266.005 162.924L273.096 170.188L266.719 180.354C266.378 181.307 265.922 182.213 265.359 183.053Z" fill="#2F2E41"/>
<path d="M243.121 201.572C243.121 201.572 261.442 230.813 258.123 234.139C254.804 237.465 249.639 238.338 249.639 238.338L238.208 223.496L243.121 201.572Z" fill="#2F2E41"/>
<path d="M226.922 161.635L235.557 167.488C239.57 170.209 242.589 174.166 244.155 178.761C245.721 183.356 245.749 188.336 244.235 192.948L241.804 200.352L226.922 161.635Z" fill="#2F2E41"/>
<path d="M211.653 241.456L210.499 245.485L206.56 294.069L186.879 330.819L196.272 337.542L223.109 302.584L233.724 267.873L250.394 344.713L262.919 343.816L254.22 237.28L237.715 207.292L211.653 241.456Z" fill="#2F2E41"/>
<path d="M225.454 163.107L237.472 172.949C240.109 175.109 242.009 178.039 242.905 181.332C243.312 182.827 243.505 184.373 243.479 185.922L243.121 207.292L254.14 236.799C254.14 236.799 224.267 248.107 220.284 238.13C216.3 228.152 225.454 163.107 225.454 163.107Z" fill="#6C63FF"/>
<path d="M229.048 243.309C214.125 243.309 210.488 243.421 210.252 243.374L210.016 243.326V234.332L213.645 218.175C213.221 213.158 212.227 206.544 212.317 200.88C212.643 180.41 211.638 160.413 211.638 160.413L219.537 153.108L223.125 155.448L229.781 162.117C237.518 181.195 243.657 199.156 243.696 200.31L244.182 220.17L242.191 228.152C233.181 234.525 241.413 243.309 229.048 243.309Z" fill="#2F2E41"/>
<path opacity="0.2" d="M214.986 178.247L213.172 189.593L225.453 194.669L214.986 178.247Z" fill="black"/>
<path d="M227.358 150.98C234 150.98 239.383 145.585 239.383 138.931C239.383 132.277 234 126.883 227.358 126.883C220.717 126.883 215.334 132.277 215.334 138.931C215.334 145.585 220.717 150.98 227.358 150.98Z" fill="#FFB6B6"/>
<path opacity="0.2" d="M207.21 200.064C210.41 203.777 214.751 206.32 219.55 207.292C224.35 208.264 229.335 207.61 233.724 205.434L236.341 204.136L207.21 200.064Z" fill="black"/>
<path d="M249.053 197.291C248.517 196.687 247.855 196.208 247.114 195.889C246.373 195.569 245.571 195.416 244.765 195.44C243.958 195.465 243.167 195.666 242.447 196.03C241.726 196.394 241.094 196.912 240.595 197.547L228.454 194.132L224.583 201.018L241.797 205.6C242.917 206.369 244.28 206.7 245.628 206.529C246.975 206.359 248.214 205.699 249.108 204.675C250.003 203.651 250.491 202.333 250.481 200.972C250.471 199.611 249.963 198.302 249.053 197.291Z" fill="#FFB6B6"/>
<path d="M220.08 204.933C214.308 204.934 206.497 201.543 197.226 194.974C196.709 194.616 196.272 194.153 195.943 193.617C195.614 193.08 195.4 192.481 195.314 191.857C194.63 187.515 198.856 181.646 199.271 181.084L203.713 168.859C203.765 168.66 205.196 163.371 208.791 161.489C209.548 161.1 210.379 160.88 211.229 160.844C212.079 160.807 212.926 160.956 213.713 161.279C220.56 163.777 215.214 183.067 214.48 185.597L223.551 189.875L229.311 193.554L237.2 194.381L235.058 204.312L223.078 204.582C222.097 204.823 221.09 204.941 220.08 204.933Z" fill="#2F2E41"/>
<path d="M241.778 131.005C240.815 132.259 237.499 133.369 233.56 134.264C233.567 134.182 233.567 134.1 233.567 134.019C233.547 132.763 233.391 131.514 233.101 130.292C232.829 131.788 232.255 133.213 231.415 134.479C231.352 134.573 231.289 134.668 231.219 134.762C227.84 135.431 224.266 135.948 221.466 136.295C223.392 143.242 230.773 148.942 229.974 153.166L208.347 157.592C208.48 155.837 208.34 154.071 207.932 152.359C207.518 154.619 206.424 156.698 204.798 158.317L202.961 158.695L202.413 155.991C197.669 144.573 204.282 132.884 215.117 126.837C217.049 123.936 220.049 121.918 223.461 121.226L226.16 120.671C227.863 120.322 229.618 120.313 231.324 120.643C233.03 120.973 234.655 121.637 236.105 122.597C237.556 123.556 238.803 124.793 239.776 126.236C240.75 127.678 241.43 129.299 241.778 131.005Z" fill="#2F2E41"/>
<path d="M293.441 349.436L293.76 342.231C297.094 340.446 300.813 339.503 304.593 339.484C299.39 343.746 300.04 351.961 296.513 357.693C295.399 359.472 293.9 360.977 292.127 362.097C290.354 363.216 288.352 363.922 286.269 364.161L281.916 366.832C281.318 363.495 281.45 360.068 282.302 356.786C283.153 353.505 284.705 350.448 286.849 347.826C288.067 346.367 289.463 345.067 291.005 343.957C292.048 346.712 293.441 349.436 293.441 349.436Z" fill="#F2F2F2"/>
<path d="M303.996 367H152.384C152.175 366.999 151.974 366.916 151.826 366.767C151.679 366.619 151.596 366.418 151.596 366.208C151.596 365.998 151.679 365.797 151.826 365.649C151.974 365.5 152.175 365.417 152.384 365.416H303.996C304.1 365.416 304.203 365.436 304.299 365.476C304.395 365.515 304.482 365.574 304.556 365.647C304.63 365.721 304.688 365.808 304.728 365.904C304.768 366.001 304.788 366.104 304.788 366.208C304.788 366.312 304.768 366.415 304.728 366.512C304.688 366.608 304.63 366.695 304.556 366.769C304.482 366.842 304.395 366.901 304.299 366.94C304.203 366.98 304.1 367 303.996 367Z" fill="#CACACA"/>
</g>
<defs>
<clipPath id="clip0_42_146">
<rect width="571" height="367" fill="white"/>
</clipPath>
</defs>
</svg>
