<svg width="347" height="151" viewBox="0 0 347 151" fill="none" xmlns="http://www.w3.org/2000/svg">
<path fill-rule="evenodd" clip-rule="evenodd" d="M251.766 14.708V29.417L245.016 20.031C241.304 14.868 237.366 9.618 236.266 8.362L234.266 6.07999L226.285 11.983C221.896 15.229 218.151 18.345 217.964 18.906C217.777 19.468 221.462 25.231 226.154 31.714C230.845 38.196 234.354 43.616 233.951 43.758C233.549 43.9 227.851 42.212 221.289 40.008C214.728 37.804 208.832 36 208.187 36C207.542 36 206.191 38.874 205.185 42.387L203.356 48.774L198.135 49.942C195.263 50.585 191.193 52.348 189.09 53.86C182.226 58.796 182.523 58.895 183.148 51.866C183.46 48.365 183.989 42.012 184.326 37.75L184.937 30H181.901C180.231 30 176.705 30.463 174.065 31.029L169.266 32.058V71.779C169.266 97.103 169.628 111.766 170.266 112.235C171.604 113.217 182.94 113.177 184.503 112.184C185.447 111.584 185.482 110.58 184.651 107.949C184.052 106.052 183.327 95.684 183.04 84.908L182.518 65.317L186.662 63.658C188.941 62.746 193.419 62 196.612 62C201.568 62 202.772 62.379 204.842 64.59L207.266 67.18L206.958 89.245C206.715 106.597 206.929 111.487 207.958 112.14C209.699 113.244 219.896 113.204 221.662 112.086C222.591 111.497 222.784 110.584 222.238 109.351C221.787 108.333 221.159 96.925 220.842 84C220.188 57.331 219.636 55.248 212.222 51.5C210.046 50.4 208.081 49.39 207.856 49.256C207.2 48.867 209.772 41 210.555 41C210.944 41 216.768 42.835 223.497 45.077C234.284 48.672 235.716 49.411 235.604 51.327C235.535 52.522 236.014 56.32 236.669 59.766C237.37 63.454 237.769 73.124 237.64 83.266C237.402 101.889 238.072 105.259 242.887 109.688C249.026 115.334 261.397 114.805 270.773 108.495C274.166 106.212 275.766 105.589 275.766 106.552C275.766 107.331 277.004 109.33 278.516 110.993C281.098 113.833 281.485 113.949 284.842 112.895C286.809 112.277 289.467 110.98 290.75 110.012L293.082 108.253L290.674 104.876C288.357 101.627 288.266 100.86 288.268 84.5C288.268 75.15 288.433 63.358 288.632 58.295L288.995 49.089L301.132 45.045C307.807 42.82 313.571 41 313.94 41C314.983 41 316.985 47.836 316.278 48.98C315.932 49.541 314.723 50 313.592 50C310.307 50 302.277 54.865 300.445 57.966C298.399 61.431 298.259 69.129 300.177 72.8C302.586 77.411 306.864 80.596 318.318 86.307C324.397 89.338 329.94 92.505 330.636 93.344C331.333 94.183 331.759 96.361 331.584 98.185C331.33 100.828 330.557 101.854 327.766 103.248C320.833 106.712 308.574 104.986 303.016 99.766C300.099 97.024 298.714 98.285 298.036 104.297L297.532 108.769L303.399 111.035C311.128 114.02 328.071 114.358 334.252 111.651C344.82 107.022 348.738 97.06 343.592 87.904C341.048 83.377 337.393 80.788 325.606 75.162C316.941 71.027 311.766 66.484 311.766 63.012C311.766 60.534 317.333 56 320.375 56C323.902 56 328.562 58.17 334.025 62.354C336.642 64.359 338.949 66 339.152 66C339.81 66 343.766 56.175 343.766 54.54C343.766 52.424 340.236 51.195 329.931 49.723L321.371 48.5L319.376 42.25C318.279 38.813 316.884 36 316.277 36C315.669 36 309.804 37.804 303.243 40.008C296.681 42.212 291 43.9 290.618 43.758C290.236 43.616 293.923 38.013 298.811 31.308L307.7 19.116L303.983 16.251C301.939 14.676 297.941 11.714 295.098 9.66901L289.931 5.95099L282.098 16.702L274.266 27.453L273.988 13.726L273.71 0H262.738H251.766V14.708ZM255.766 17.853V31.706H262.766H269.766V17.853V4H262.766H255.766V17.853ZM228.04 16.043L222.814 20.054L230.87 31.02L238.925 41.986L243.548 38.743C246.09 36.959 248.593 35.209 249.109 34.854C249.938 34.283 235.032 12.142 233.766 12.064C233.491 12.047 230.914 13.838 228.04 16.043ZM283.671 21.699C279.718 27.089 275.984 32.136 275.375 32.913C274.555 33.956 274.576 34.43 275.455 34.726C276.109 34.946 278.561 36.643 280.905 38.498C283.249 40.353 285.467 41.685 285.834 41.458C286.829 40.843 301.957 19.841 301.586 19.591C301.41 19.473 298.924 17.693 296.062 15.637L290.858 11.897L283.671 21.699ZM26.266 25.504C20.643 27.496 13.568 35.24 10.93 42.291C9.73998 45.472 8.76598 48.849 8.76598 49.795C8.76598 50.768 6.77897 52.715 4.18997 54.279C1.67297 55.799 -0.205023 57.588 0.0179767 58.255C0.239977 58.922 2.24897 59.829 4.48297 60.271L8.54498 61.074L9.27298 84.39C10.232 115.066 8.84898 125.571 2.96898 132.274C1.86898 133.528 1.72498 134.359 2.47798 135.112C4.02798 136.662 16.997 124.102 19.92 118.219C22.232 113.567 22.261 113.118 21.949 86.75L21.631 60L23.949 60.044C25.223 60.068 28.223 60.465 30.616 60.927C34.894 61.754 34.988 61.713 36.366 58.416C38.931 52.276 38.644 52 29.705 52H21.645L22.33 44.75C22.707 40.762 23.611 36.038 24.34 34.25C26.201 29.681 29.877 29.891 37.528 35C40.823 37.2 43.767 39 44.07 39C44.656 39 48.766 28.537 48.766 27.045C48.766 25.88 39.756 23.989 34.467 24.044C32.156 24.068 28.466 24.725 26.266 25.504ZM114.386 31.327L110.507 32.5L110.386 72.198C110.249 117.341 109.298 112.974 119.266 112.971C126.07 112.969 126.838 112.325 125.819 107.475C125.359 105.289 124.727 100.575 124.415 97C123.862 90.667 123.936 90.399 127.307 86.583C129.209 84.429 130.941 82.854 131.155 83.083C132.271 84.278 146.727 106.985 148.216 109.883C149.949 113.254 149.973 113.263 155.61 112.671C158.721 112.344 162.644 111.595 164.327 111.006L167.389 109.936L163.026 105.218C159.078 100.949 146.91 83.436 142.197 75.239L140.321 71.977L151.794 60.386L163.266 48.795L157.266 49.457C148.991 50.37 148.433 50.603 147.021 53.738C145.725 56.619 139.68 63.947 129.486 75L123.491 81.5L124.158 63.5C124.525 53.6 125.102 42.012 125.439 37.75L126.054 30L122.16 30.077C120.018 30.119 116.52 30.682 114.386 31.327ZM253.766 37.594C249.556 39.418 245.127 43.466 243.105 47.34L241.622 50.179L246.357 49.84L251.092 49.5L251.179 73.719C251.262 96.94 251.353 98.025 253.369 100.045C256.286 102.966 262.337 103.557 269.123 101.585L274.766 99.944L274.881 86.722C275.046 67.733 274.765 61.019 273.621 56.607C272.46 52.127 273.036 51.468 278.996 50.461C281.481 50.041 282.766 49.29 282.766 48.257C282.766 46.143 275.217 39.086 271.127 37.378C266.817 35.576 258.176 35.684 253.766 37.594ZM64.484 50.092C53.371 52.708 43.715 62.631 41.266 73.951C39.663 81.354 40.552 91.853 43.286 97.825C46.523 104.895 48.926 107.499 55.266 110.805C59.47 112.998 61.562 113.411 68.405 113.398C75.542 113.386 77.352 112.986 83.113 110.15C94.737 104.428 100.863 94.258 100.967 80.514C101.032 71.977 99.657 66.628 96 61.182C89.41 51.37 77.24 47.088 64.484 50.092ZM65.45 61.411C57.216 64.429 53.454 70.856 53.398 82C53.315 98.497 60.455 107.771 72.471 106.775C81.403 106.034 85.961 101.137 87.885 90.217C89.712 79.844 85.951 69.294 78.363 63.506C74.162 60.302 70.219 59.662 65.45 61.411ZM328.766 136.5V150L331.516 150.002L334.266 150.005L333.941 142.04C333.621 134.194 333.655 134.066 336.204 133.426C340.555 132.334 341.766 134.336 341.766 142.622C341.766 149.721 341.856 150 344.14 150C346.503 150 346.513 149.955 346.032 140.75C345.669 133.795 345.142 131.174 343.907 130.187C342.289 128.892 338.936 129.003 335.516 130.466C334.012 131.109 333.766 130.637 333.766 127.107C333.766 123.393 333.527 123 331.266 123H328.766V136.5ZM271.516 129.324C268.434 131.847 268.042 133 270.266 133C271.48 133 271.766 134.599 271.766 141.393C271.766 150.695 272.737 152.101 277.542 149.757C280.83 148.153 281.916 145.466 278.964 146.238C276.371 146.916 275.766 145.438 275.766 138.418C275.766 133.305 275.907 133 278.266 133C279.822 133 280.766 132.433 280.766 131.5C280.766 130.567 279.822 130 278.266 130C276.71 130 275.766 129.433 275.766 128.5C275.766 126.467 274.769 126.66 271.516 129.324ZM288.473 131.016C283.446 134.97 282.603 144.733 286.949 148.666C289.432 150.912 295.772 150.882 299.245 148.606C302.586 146.417 302.557 144.749 299.201 146.025C295.067 147.597 291.995 147.165 290.323 144.777C289.467 143.555 288.766 142.27 288.766 141.922C288.766 141.574 291.755 141.01 295.408 140.669C299.062 140.328 302.284 139.816 302.569 139.531C303.609 138.49 300.641 131.004 298.796 130.016C295.768 128.396 291.248 128.833 288.473 131.016ZM310.74 131.872C307.377 135.235 306.301 138.707 307.175 143.369C308.397 149.88 315.296 152.503 321.136 148.677C324.232 146.648 324.817 144.367 321.832 145.965C318.632 147.677 314.999 147.171 313.323 144.777C311.192 141.735 311.351 135.735 313.637 132.911C315.441 130.683 315.6 130.661 318.102 132.3C321.353 134.431 322.384 134.437 323.193 132.33C324.037 130.129 322.137 129.034 317.439 129.015C314.546 129.004 312.911 129.701 310.74 131.872ZM290.363 133.165C287.058 137.884 288.711 139.925 294.568 138.356C297.441 137.587 297.196 134.344 294.113 132.307C292.164 131.019 291.809 131.1 290.363 133.165Z" fill="white"/>
</svg>
